:FULLY-SPECIFIED
:FORCE-ALL-JOINTS-BE-3DOF
:DEGREES
136
root 7.77377 16.7154 -26.3446 0 0 0
lfemur -9.11794 14.5458 -18.3752
ltibia 0 0 0
lfoot -16.3316 -5.7081 -0.0775495
ltoes 0 0 0
rfemur 0 0 0
rtibia 0 0 0
rfoot 0 0 0
rtoes 0 0 0
lowerback 0 0 0
upperback 4.50146 -5.36028 -0.389846
thorax -2.76639 -2.66766 3.93463
lowerneck -12.0118 -2.03776 -0.133365
upperneck 0 0 0
head 2.36637 -1.3013 0.853596
lclavicle 0 0 0
lhumerus -38.354 -23.3488 92.904
lradius 0 0 0
lwrist 0 0 0
lhand 14.7244 8.83632 0.22312
lfingers 0 0 0
lthumb 0 0 0
rclavicle 0 0 0
rhumerus 0 0 0
rradius 0 0 0
rwrist 0 0 0
rhand -12.828 -32.7264 3.51126
rfingers 0 0 0
rthumb 0 0 0
137
root 7.73163 16.6911 -26.3356 0 0 0
lfemur -9.82234 15.2297 -18.2834
ltibia 0 0 0
lfoot -16.5768 -5.07117 -0.0776898
ltoes 0 0 0
rfemur 0 0 0
rtibia 0 0 0
rfoot 0 0 0
rtoes 0 0 0
lowerback 0 0 0
upperback 4.4174 -5.71348 -0.529425
thorax -2.75437 -2.84035 3.94762
lowerneck -11.9684 -2.12846 -0.282896
upperneck 0 0 0
head 2.33645 -1.34891 0.949355
lclavicle 0 0 0
lhumerus -37.9712 -24.4613 93.015
lradius 0 0 0
lwrist 0 0 0
lhand 15.834 9.24179 0.223524
lfingers 0 0 0
lthumb 0 0 0
rclavicle 0 0 0
rhumerus 0 0 0
rradius 0 0 0
rwrist 0 0 0
rhand -16.1113 -34.9321 3.51776
rfingers 0 0 0
rthumb 0 0 0
138
root 7.68794 16.6661 -26.3262 0 0 0
lfemur -10.521 15.908 -18.2008
ltibia 0 0 0
lfoot -16.8196 -4.4405 -0.0751431
ltoes 0 0 0
rfemur 0 0 0
rtibia 0 0 0
rfoot 0 0 0
rtoes 0 0 0
lowerback 0 0 0
upperback 4.33495 -6.06343 -0.667211
thorax -2.7425 -3.01134 3.96045
lowerneck -11.9251 -2.21816 -0.431037
upperneck 0 0 0
head 2.30674 -1.396 1.0442
lclavicle 0 0 0
lhumerus -37.591 -25.5636 93.1178
lradius 0 0 0
lwrist 0 0 0
lhand 16.9327 9.64323 0.216187
lfingers 0 0 0
lthumb 0 0 0
rclavicle 0 0 0
rhumerus 0 0 0
rradius 0 0 0
rwrist 0 0 0
rhand -19.36 -37.1128 3.39997
rfingers 0 0 0
rthumb 0 0 0
139
root 7.64311 16.6406 -26.3165 0 0 0
lfemur -11.2038 16.5703 -18.1282
ltibia 0 0 0
lfoot -17.0563 -3.82545 -0.0700858
ltoes 0 0 0
rfemur 0 0 0
rtibia 0 0 0
rfoot 0 0 0
rtoes 0 0 0
lowerback 0 0 0
upperback 4.25531 -6.4049 -0.801186
thorax -2.73096 -3.1781 3.97292
lowerneck -11.8826 -2.30553 -0.575586
upperneck 0 0 0
head 2.27768 -1.44187 1.13672
lclavicle 0 0 0
lhumerus -37.219 -26.6391 93.2111
lradius 0 0 0
lwrist 0 0 0
lhand 18.0042 10.0345 0.201619
lfingers 0 0 0
lthumb 0 0 0
rclavicle 0 0 0
rhumerus 0 0 0
rradius 0 0 0
rwrist 0 0 0
rhand -22.5212 -39.2295 3.16657
rfingers 0 0 0
rthumb 0 0 0
140
root 7.59758 16.615 -26.3063 0 0 0
lfemur -11.8602 17.2065 -18.0662
ltibia 0 0 0
lfoot -17.2834 -3.2354 -0.0628459
ltoes 0 0 0
rfemur 0 0 0
rtibia 0 0 0
rfoot 0 0 0
rtoes 0 0 0
lowerback 0 0 0
upperback 4.17961 -6.73268 -0.929358
thorax -2.71991 -3.3381 3.98486
lowerneck -11.8417 -2.38925 -0.714334
upperneck 0 0 0
head 2.24974 -1.48584 1.22551
lclavicle 0 0 0
lhumerus -36.8605 -27.6714 93.294
lradius 0 0 0
lwrist 0 0 0
lhand 19.032 10.4096 0.180769
lfingers 0 0 0
lthumb 0 0 0
rclavicle 0 0 0
rhumerus 0 0 0
rradius 0 0 0
rwrist 0 0 0
rhand -25.5431 -41.2446 2.83363
rfingers 0 0 0
rthumb 0 0 0
141
root 7.55176 16.5894 -26.2956 0 0 0
lfemur -12.4799 17.8063 -18.0146
ltibia 0 0 0
lfoot -17.4971 -2.67973 -0.0538898
ltoes 0 0 0
rfemur 0 0 0
rtibia 0 0 0
rfoot 0 0 0
rtoes 0 0 0
lowerback 0 0 0
upperback 4.10894 -7.04153 -1.04975
thorax -2.70954 -3.48878 3.99608
lowerneck -11.803 -2.46801 -0.845069
upperneck 0 0 0
head 2.22336 -1.52722 1.30916
lclavicle 0 0 0
lhumerus -36.5213 -28.6441 93.3661
lradius 0 0 0
lwrist 0 0 0
lhand 19.9998 10.7625 0.154984
lfingers 0 0 0
lthumb 0 0 0
rclavicle 0 0 0
rhumerus 0 0 0
rradius 0 0 0
rwrist 0 0 0
rhand -28.376 -43.1233 2.42367
rfingers 0 0 0
rthumb 0 0 0
